<mxfile host="65bd71144e" scale="2" border="10">
    <diagram id="DgKN3S9A2oqIeOYTk5yy" name="Page-1">
        <mxGraphModel dx="842" dy="694" grid="1" gridSize="10" guides="1" tooltips="1" connect="1" arrows="1" fold="1" page="1" pageScale="1" pageWidth="850" pageHeight="1100" math="1" shadow="0">
            <root>
                <mxCell id="0"/>
                <mxCell id="1" parent="0"/>
                <mxCell id="15" style="edgeStyle=none;html=1;entryX=0;entryY=0.5;entryDx=0;entryDy=0;fontSize=24;strokeWidth=2;" edge="1" parent="1" source="3" target="14">
                    <mxGeometry relative="1" as="geometry"/>
                </mxCell>
                <mxCell id="3" value="System&lt;br&gt;&lt;span style=&quot;font-weight: normal;&quot;&gt;&lt;i&gt;f&lt;/i&gt;&lt;/span&gt;" style="rounded=1;whiteSpace=wrap;html=1;fontSize=24;fontStyle=1;fillColor=#dae8fc;strokeColor=#6c8ebf;" vertex="1" parent="1">
                    <mxGeometry x="240" y="260" width="200" height="80" as="geometry"/>
                </mxCell>
                <mxCell id="13" style="edgeStyle=none;html=1;exitX=1;exitY=0.5;exitDx=0;exitDy=0;entryX=0;entryY=0.5;entryDx=0;entryDy=0;fontSize=24;strokeWidth=2;" edge="1" parent="1" source="11" target="3">
                    <mxGeometry relative="1" as="geometry"/>
                </mxCell>
                <mxCell id="11" value="&lt;b&gt;Input&lt;br&gt;&lt;/b&gt;&lt;i&gt;x&lt;/i&gt;" style="text;html=1;align=center;verticalAlign=middle;whiteSpace=wrap;rounded=0;strokeWidth=1;fontSize=24;fillColor=#f5f5f5;strokeColor=#666666;fontColor=#333333;" vertex="1" parent="1">
                    <mxGeometry x="40" y="260" width="120" height="80" as="geometry"/>
                </mxCell>
                <mxCell id="18" style="edgeStyle=orthogonalEdgeStyle;curved=1;html=1;exitX=0.5;exitY=1;exitDx=0;exitDy=0;strokeWidth=2;fontSize=24;dashed=1;" edge="1" parent="1" source="14" target="16">
                    <mxGeometry relative="1" as="geometry">
                        <mxPoint x="460" y="450" as="targetPoint"/>
                        <Array as="points">
                            <mxPoint x="580" y="440"/>
                        </Array>
                    </mxGeometry>
                </mxCell>
                <mxCell id="14" value="&lt;b&gt;Output&lt;br&gt;&lt;/b&gt;&lt;i&gt;f(x)&lt;/i&gt;" style="text;html=1;align=center;verticalAlign=middle;whiteSpace=wrap;rounded=0;strokeWidth=1;fontSize=24;fillColor=#d5e8d4;strokeColor=#82b366;" vertex="1" parent="1">
                    <mxGeometry x="520" y="260" width="120" height="80" as="geometry"/>
                </mxCell>
                <mxCell id="20" style="edgeStyle=orthogonalEdgeStyle;curved=1;html=1;entryX=0.5;entryY=1;entryDx=0;entryDy=0;strokeWidth=2;fontSize=24;dashed=1;" edge="1" parent="1" source="16" target="11">
                    <mxGeometry relative="1" as="geometry">
                        <mxPoint x="220" y="460" as="sourcePoint"/>
                    </mxGeometry>
                </mxCell>
                <mxCell id="16" value="Optimization&lt;br&gt;Solver" style="ellipse;shape=cloud;whiteSpace=wrap;html=1;strokeWidth=1;fontSize=24;" vertex="1" parent="1">
                    <mxGeometry x="220" y="360" width="240" height="160" as="geometry"/>
                </mxCell>
            </root>
        </mxGraphModel>
    </diagram>
</mxfile>